<svg xmlns="http://www.w3.org/2000/svg" aria-label="Kira Howe" class="brandmark" viewBox="0 0 1408 376"><title>Kira Howe</title><path fill="currentColor" fill-rule="evenodd" d="m796 46-3 1h-2l-5 1-2 1-2 1h-1l-1 1h-2l-1 1-2 1-6 3-1 1-2 1-5 4-7 6-15 16q-5 5-7 12l-1 1-2 5-2 10q-1 13 5 19l6 3 8 2q2 1 2-2l-2-13a73 73 0 0 1 6-24l1-3 1-1 9-17 16-16 1-1 3-1v-1h2l2-1h4l3 1q2 0 2 5l-1 8-2 7-1 4-1 2-1 4-2 4-1 5-2 4-2 7-2 5-4 11v2l-2 4-2 6v1l-1 2-1 2-1 3v2l-1 2-3 9-3 9-2 6-1 2-5 1-2 1h-2l-1 1h-3l-4 2-2 1q-7 4-9 10l-1 4 1 1h3l4-1h4l11-1v2l-2 7-1 3-2 3v2l-1 3-2 6v1l-3 10-1 2-3 9-3 11-2 5-1 7-4 10-1 4-1 3-1 8-3 8v3l-1 2v2l-5 21-1 8q-2 5 1 4l3-1h1l4-2a30 30 0 0 0 12-13v-1l1-2v-1l1-3 1-3 1-2 2-7 4-12v-2l4-11 2-7 2-7 1-2v-2l1-1 2-7 2-7 1-2v-2l1-1v-2l1-1v-2l3-10 3-8 1-4 6-18 2-3 25-2 58 1-1 2v2l-1 3-1 3-1 2-2 5-1 7-1 3-10 34-4 16v2l-1 3-3 18v2l-1 6v19l3 10 4 4 4 3 5 2h2l6 1v-27l1-16 1-4 4-26v-3l1-6 1-2 1-3v-5l1-2 1-4 1-5 8-35 1-6 1-5h4l7-1 5-1 7-3q6-4 6-6h-3l-22-2v-4l2-7 2-8 2-7 2-6 5-17 1-3 5-21 1-2 2-6v-3l1-2 2-7 1-2 2-7 1-2 1-5 4-10 1-3 1-3 1-2v-1l-3 1q-6 1-10 8l-4 5-4 8v2l-1 1v1l-1 2v1l-1 2-2 4v2l-1 1-3 8-2 6-1 3-1 2v2l-1 2-2 8-3 9-1 2v1l-1 2v2l-1 1v2l-1 1v2l-3 8-1 4-1 3-7 21h-3l-12-1-14-1-53-2 1-2v-2l2-3 1-3 2-7 6-19 1-6 1-2 2-7 2-7 2-7 2-6 2-7 2-6 2-5 2-10 1-10-2-5-1-2-7-6h-2zm-673 0-2 1-13 4-2 1-1 1h-1l-2 1-2 1-1 1-15 11-13 13-2 2-9 16-3 8v3l-1 6 1 6q2 7 5 10l7 4h3l5 1v-1l-1-2v-5a60 60 0 0 1 4-27l1-2 1-3 1-2v-1l1-1 6-13 1-2 3-3 10-11 8-6h13q2 0 3 3l1 5-1 6-2 7-1 4-2 4-1 5-2 4-1 4-2 5-2 5v2l-1 2-1 2-2 6-6 19-3 9-4 10-1 3v2l-2 4-3 9-2 7-2 5v1l-1 2-3 8-7 21v2l-1 1-1 5-3 7-1 2-3 9v2l-2 4v2l-1 1-2 6v1l-1 1v2l-1 1-4 11v2l-1 1-1 3-1 2-1 3-1 3-1 3-2 6-2 4v2l-1 1-1 2v2l-1 1-1 3-2 6-1 2-1 2-1 2-1 1v1h3l15-2 3-2h1l4-3 4-6 2-4 1-3 3-11 2-7 2-6 2-7 1-4 1-3 2-6 1-3 2-4 1-3 3-11 2-7 2-6 2-7 2-6 1-5 4-10v-3l2 1 3 6 15 29 1 2 8 15 5 8 1 2 1 2 1 1 1 2 17 25 2 3 2 3 9 11 1 1c6 7 15 17 20 20l8 4h10l1-1 7-4 4-4q4-2-2-5a465 465 0 0 1-71-75l-3-4-2-3-16-24-2-4-1-2-2-3-9-15-1-3 3-2 19-13 5-4 7-5 9-6 3-3 5-4a645 645 0 0 0 67-61l1-2 9-15v-1l2-5V58q0-9-2-11h-1l-6 9-4 6a401 401 0 0 1-74 76l-3 3-11 8-5 5-6 4-7 6-10 9q-3 5-2 0l1-2 2-6 2-7 2-6 2-7 2-8 1-3 4-13 1-3 6-18 2-7 2-6 3-9 1-7 1-10-2-7v-1l-3-4q-4-3-12-3zm186 74h-2l-6 2-4 2q-6 3-9 8l-1 2v4l1 5 4 4a20 20 0 0 0 16 1h1l10-7 5-8v-6q-1-6-7-7zm50 38-9 9-4 10v9l1 3 1 1v3l-2 5v2l-1 1v2l-1 1v1l-2 4v2h-1v2l-4 10-3 5-1 5-2 2-1 4-12 23-2 3-3 5-9 12-10 10q-9 8-18 9l-6 1-6-1q-8-1-11-11v-9l2-17 1-2 4-13 7-13 4-9 2-2 8-14 1-1 1-2 1-2 1-2 2-3 1-3 2-5v-3l-2-5-6-2-7 2q-7 5-14 15l-10 16-1 2-1 1-1 3-2 5-3 7-5 16-2 6-4 18-1 14a31 31 0 0 0 11 22l9 4 20-1 14-6 3-1 11-8a97 97 0 0 0 27-39l1-1v-1l4-7 3-7 1-1 1-3 19-42 14 10 3 5h1v1l1 1v3l1 2-1 13-5 16v1l-1 2-2 5-1 1v1l-1 1-1 2-5 13-1 3-1 5v3q-2 9 1 15 1 5 5 8a24 24 0 0 0 17 6l12-1h3l12-5a102 102 0 0 0 25-19l5-4v16l3 9 3 4q7 8 18 8l13-2 13-7q11-10 23-24l3-3 2-3q3-4 2 2l-1 6 1 6q0 3 3 8l5 6 8 4h3a42 42 0 0 0 23-3l7-3a94 94 0 0 0 31-29l6-9 1-2 9-18-4-4-1 3-20 29-3 3-10 10-2 2q-7 6-14 8l-7 2-6-2q-5-2-6-12l1-11 1-4 5-10 1-3 2-3 2-3 1-2 1-2 2-4 3-6 1-5-1-3-9-4h-1l-2-1-1 1-2 2-2 3-3 5-3 5-3 3-3 4-2 3-4 6-33 37-6 4q-9 6-16 5-6 0-7-6l-1-8 2-16 1-3v-3l1-1 2-6 3-8 18-31 7-9 2-2c5-6 14-14 19-17l8-3q5-3 11-3 7 0 10 3l4 4 1 2 1 2 1 1v3l1 7-2 9q0 2 2 2 11-1 13-7 3-3 2-5l-1-11-2-5-5-6q-7-6-18-8h-13a67 67 0 0 0-30 12l-2 1-14 11-18 19-2 2-1 2-2 3-17 31-1 1v1l-1 2a82 82 0 0 1-24 24l-12 7-9 3q-11 3-14-5l-1-5q-1-6 2-11l4-10 1-2 2-7 2-4 1-3 1-2 5-17-2-17-2-4q-2-5-9-10l-8-7c-13-9-14-11-15-14v-6l2-5 1-7-1-4-1-2zm984 18-7 1-8 3h-2l-9 5a119 119 0 0 0-38 36c-1 1-6 7-6 9l-2 2-2 4-1 1v1l-3 6-1 3-4 9-1 3-1 4-2 5q-5 5-12 6h-10q-4-1-7-5l-1-2-1-1v-2l-2-12a84 84 0 0 1 8-41l4-9v-6l-2-3v-1l-5-5-5-1h-4l-2 1-6 6-3 8-2 6v4l-1 16-1 6-8 16-2 3-12 21-2 3-2 3a105 105 0 0 1-23 24l-6 2-4-1q-5-3-5-17a273 273 0 0 1 5-51l1-3 1-6 4-15v-4l-1-3q0-2-3-3l-7-1-3 1-3 4-6 18v4l-1 3-2 5-2 5-12 20-2 4a186 186 0 0 1-25 33l-12 4-5-2-4-4-3-10a79 79 0 0 1 5-38l2-6 2-5v-2l1-1v-1l1-3 2-4 6-12 1-3 2-2 1-2v-4l-8-4h-7l-8 10-9 20-1 2-1 5-2 4v2l-1 3-1 4-1 2v1l-1 1v1l-1 1a40 40 0 0 1-16 15l-3 1-6 2h-2l-3 1-12-1-4-1-1-1-1-1v-1l1-2 5-7 1-2 2-4 4-8 7-17 1-4 2-10 1-9-3-14v-1l-2-4-8-6-7-2-16 2h-2l-1 1h-1l-7 6-7 10-3 7-2 6v3l1 25v4l1 2 2 5 2 6 4 6 7 8 3 3v1l-4 4q-13 15-25 21l-2 2h-12q-5-2-7-8l-2-11 4-22 4-9v-1l2-4v-3l1-2 3-6 6-10 1-2 3-4 1-2h-1l-5-2-7 2q-6 2-10 7a71 71 0 0 0-17 26l-1 3-6 24v17q2 8 7 15l6 4a36 36 0 0 0 30 0l8-4 2-1 11-9 16-17c3-3 2-3 5-2l8 2 18-1 2-1h1l9-4h2v-1l10-7v4a54 54 0 0 0 5 30l1 2 10 9 6 2 5 1q13 0 25-14l18-25 1-2 1-2 1-1 1-2 1-2 4-8 2-3 1-2 2-2v1l-1 5v4l-1 4v24l1 10 3 10 3 4 3 2h1l2 1 6 1 8-1 15-9 18-19 2-3 4-6 5-7 3-3v-1l1-1 1-3 3-4 6-10 1 4 2 6 3 5q4 8 11 12l7 2h14l9-4 2-1v3l4 18 1 2 3 5a36 36 0 0 0 17 14h1l15 3a71 71 0 0 0 31-6l2-1 7-3 3-1a108 108 0 0 0 34-30l18-28-2-4q-2-2-3 1l-2 4-3 6-2 2-1 2-3 4a174 174 0 0 1-27 28l-2 1-18 10-6 2q-10 3-21 2l-9-2q-7-3-10-10l-2-6-1-3-1-3 1-17 1-2h5l4-1 19-5 3-1 1-1h2l3-1 23-14q16-11 24-26l4-13q2-11-1-17-1-6-5-8l-8-3zm7 11q2 0 3 3l1 6-1 6-4 11a78 78 0 0 1-22 24l-3 2a197 197 0 0 1-36 19l-5 2 2-7 8-18 1-2 1-2 1-2 9-13q12-15 24-23l13-6zm-352 2 7 6v3l1 10a46 46 0 0 1-2 19l-1 2-2 7-1 2-4 8-4 8-3 4-1 2-3 3c-1 0-6-7-7-13l-4-14-1-5 1-15 1-7 1-1 2-5 4-6q9-11 16-8"/></svg>